<mxfile host="app.diagrams.net" modified="2024-05-09T08:12:37.114Z" agent="Mozilla/5.0 (Windows NT 10.0; Win64; x64; rv:125.0) Gecko/20100101 Firefox/125.0" etag="q3J4AWjyihxrZ5PPQejg" version="24.2.5" type="github">
  <diagram name="Page-1" id="uv1Ds1zVz8xSHR1VwrCG">
    <mxGraphModel dx="1434" dy="836" grid="0" gridSize="10" guides="1" tooltips="1" connect="1" arrows="1" fold="1" page="0" pageScale="1" pageWidth="850" pageHeight="1100" math="0" shadow="0">
      <root>
        <mxCell id="0" />
        <mxCell id="1" parent="0" />
        <mxCell id="OSMBPguObw0gnJWRp-eb-1" value="Spring Bhoot" style="rounded=0;whiteSpace=wrap;html=1;" vertex="1" parent="1">
          <mxGeometry x="-177" y="92" width="120" height="60" as="geometry" />
        </mxCell>
        <mxCell id="OSMBPguObw0gnJWRp-eb-2" value="Jai Meter" style="rounded=0;whiteSpace=wrap;html=1;" vertex="1" parent="1">
          <mxGeometry x="-175" y="199" width="120" height="60" as="geometry" />
        </mxCell>
        <mxCell id="OSMBPguObw0gnJWRp-eb-3" value="Akela Developer" style="rounded=0;whiteSpace=wrap;html=1;" vertex="1" parent="1">
          <mxGeometry x="-177" y="-19" width="120" height="60" as="geometry" />
        </mxCell>
        <mxCell id="OSMBPguObw0gnJWRp-eb-4" value="Faltu Application" style="rounded=0;whiteSpace=wrap;html=1;" vertex="1" parent="1">
          <mxGeometry x="-172" y="323" width="120" height="60" as="geometry" />
        </mxCell>
        <mxCell id="OSMBPguObw0gnJWRp-eb-5" value="ALL DUMPING DATA INTO DIFFERENT FILES ON A HARD DRIVE, CLOUD DRIVE OR ANY COMMON DRIVE IN THE WORLD" style="shape=note;whiteSpace=wrap;html=1;backgroundOutline=1;darkOpacity=0.05;" vertex="1" parent="1">
          <mxGeometry x="125" y="8" width="76" height="246" as="geometry" />
        </mxCell>
        <mxCell id="OSMBPguObw0gnJWRp-eb-6" value="" style="endArrow=classic;html=1;rounded=0;fontSize=12;startSize=8;endSize=8;curved=1;" edge="1" parent="1">
          <mxGeometry width="50" height="50" relative="1" as="geometry">
            <mxPoint x="-48" y="15" as="sourcePoint" />
            <mxPoint x="115" y="124" as="targetPoint" />
          </mxGeometry>
        </mxCell>
        <mxCell id="OSMBPguObw0gnJWRp-eb-7" value="" style="endArrow=classic;html=1;rounded=0;fontSize=12;startSize=8;endSize=8;curved=1;" edge="1" parent="1">
          <mxGeometry width="50" height="50" relative="1" as="geometry">
            <mxPoint x="-50" y="344" as="sourcePoint" />
            <mxPoint x="125" y="134" as="targetPoint" />
          </mxGeometry>
        </mxCell>
        <mxCell id="OSMBPguObw0gnJWRp-eb-8" value="" style="endArrow=classic;html=1;rounded=0;fontSize=12;startSize=8;endSize=8;curved=1;exitX=1;exitY=0.5;exitDx=0;exitDy=0;" edge="1" parent="1" source="OSMBPguObw0gnJWRp-eb-2">
          <mxGeometry width="50" height="50" relative="1" as="geometry">
            <mxPoint x="-40" y="354" as="sourcePoint" />
            <mxPoint x="113" y="140" as="targetPoint" />
          </mxGeometry>
        </mxCell>
        <mxCell id="OSMBPguObw0gnJWRp-eb-9" value="" style="endArrow=classic;html=1;rounded=0;fontSize=12;startSize=8;endSize=8;curved=1;exitX=1;exitY=0.5;exitDx=0;exitDy=0;" edge="1" parent="1" source="OSMBPguObw0gnJWRp-eb-1">
          <mxGeometry width="50" height="50" relative="1" as="geometry">
            <mxPoint x="-45" y="239" as="sourcePoint" />
            <mxPoint x="115" y="134" as="targetPoint" />
          </mxGeometry>
        </mxCell>
        <mxCell id="OSMBPguObw0gnJWRp-eb-10" value="MONGO DB IS A DOCUMENT DATABASE WHICH CAN STORE DATA FOR ALL THESE LOGS " style="shape=cylinder3;whiteSpace=wrap;html=1;boundedLbl=1;backgroundOutline=1;size=15;" vertex="1" parent="1">
          <mxGeometry x="449" y="12" width="97" height="232" as="geometry" />
        </mxCell>
        <mxCell id="OSMBPguObw0gnJWRp-eb-11" value="A service or a small program or an application that reads this log file and fills the data into mongo db using different identifiers which make it possible to identify that the log belongs to which application." style="rounded=0;whiteSpace=wrap;html=1;" vertex="1" parent="1">
          <mxGeometry x="266" y="9" width="118" height="238" as="geometry" />
        </mxCell>
        <mxCell id="OSMBPguObw0gnJWRp-eb-12" value="" style="endArrow=classic;startArrow=classic;html=1;rounded=0;fontSize=12;startSize=8;endSize=8;curved=1;entryX=-0.017;entryY=0.546;entryDx=0;entryDy=0;entryPerimeter=0;" edge="1" parent="1" target="OSMBPguObw0gnJWRp-eb-11">
          <mxGeometry width="50" height="50" relative="1" as="geometry">
            <mxPoint x="198" y="137" as="sourcePoint" />
            <mxPoint x="263" y="144" as="targetPoint" />
          </mxGeometry>
        </mxCell>
        <mxCell id="OSMBPguObw0gnJWRp-eb-23" value="" style="edgeStyle=none;curved=1;rounded=0;orthogonalLoop=1;jettySize=auto;html=1;fontSize=12;startSize=8;endSize=8;" edge="1" parent="1" source="OSMBPguObw0gnJWRp-eb-15" target="OSMBPguObw0gnJWRp-eb-21">
          <mxGeometry relative="1" as="geometry" />
        </mxCell>
        <mxCell id="OSMBPguObw0gnJWRp-eb-15" value="Actor" style="shape=umlActor;verticalLabelPosition=bottom;verticalAlign=top;html=1;outlineConnect=0;" vertex="1" parent="1">
          <mxGeometry x="718" y="-23" width="30" height="61" as="geometry" />
        </mxCell>
        <mxCell id="OSMBPguObw0gnJWRp-eb-20" value="" style="endArrow=classic;startArrow=classic;html=1;rounded=0;fontSize=12;startSize=8;endSize=8;curved=1;entryX=-0.017;entryY=0.546;entryDx=0;entryDy=0;entryPerimeter=0;" edge="1" parent="1">
          <mxGeometry width="50" height="50" relative="1" as="geometry">
            <mxPoint x="383" y="140" as="sourcePoint" />
            <mxPoint x="449" y="142" as="targetPoint" />
          </mxGeometry>
        </mxCell>
        <mxCell id="OSMBPguObw0gnJWRp-eb-21" value="GRAFANA" style="ellipse;whiteSpace=wrap;html=1;aspect=fixed;" vertex="1" parent="1">
          <mxGeometry x="695" y="124" width="80" height="80" as="geometry" />
        </mxCell>
        <mxCell id="OSMBPguObw0gnJWRp-eb-22" value="SAYANA" style="ellipse;whiteSpace=wrap;html=1;aspect=fixed;" vertex="1" parent="1">
          <mxGeometry x="697" y="287" width="80" height="80" as="geometry" />
        </mxCell>
        <mxCell id="OSMBPguObw0gnJWRp-eb-24" value="Fancy People" style="text;html=1;align=center;verticalAlign=middle;resizable=0;points=[];autosize=1;strokeColor=none;fillColor=none;fontSize=16;" vertex="1" parent="1">
          <mxGeometry x="767" y="25" width="116" height="31" as="geometry" />
        </mxCell>
        <mxCell id="OSMBPguObw0gnJWRp-eb-25" value="" style="endArrow=classic;startArrow=classic;html=1;rounded=0;fontSize=12;startSize=8;endSize=8;curved=1;" edge="1" parent="1" source="OSMBPguObw0gnJWRp-eb-10">
          <mxGeometry width="50" height="50" relative="1" as="geometry">
            <mxPoint x="648" y="370" as="sourcePoint" />
            <mxPoint x="698" y="320" as="targetPoint" />
          </mxGeometry>
        </mxCell>
        <mxCell id="OSMBPguObw0gnJWRp-eb-26" value="" style="endArrow=classic;startArrow=classic;html=1;rounded=0;fontSize=12;startSize=8;endSize=8;curved=1;entryX=0;entryY=0.5;entryDx=0;entryDy=0;" edge="1" parent="1" target="OSMBPguObw0gnJWRp-eb-21">
          <mxGeometry width="50" height="50" relative="1" as="geometry">
            <mxPoint x="545" y="158" as="sourcePoint" />
            <mxPoint x="595" y="108" as="targetPoint" />
          </mxGeometry>
        </mxCell>
        <mxCell id="OSMBPguObw0gnJWRp-eb-27" value="" style="endArrow=classic;startArrow=classic;html=1;rounded=0;fontSize=12;startSize=8;endSize=8;curved=1;" edge="1" parent="1" target="OSMBPguObw0gnJWRp-eb-15">
          <mxGeometry width="50" height="50" relative="1" as="geometry">
            <mxPoint x="544" y="83" as="sourcePoint" />
            <mxPoint x="594" y="33" as="targetPoint" />
          </mxGeometry>
        </mxCell>
        <mxCell id="OSMBPguObw0gnJWRp-eb-28" value="Anyone can query logs using mongo query language." style="text;html=1;align=center;verticalAlign=middle;whiteSpace=wrap;rounded=0;fontSize=16;" vertex="1" parent="1">
          <mxGeometry x="607" y="67" width="72" height="161" as="geometry" />
        </mxCell>
      </root>
    </mxGraphModel>
  </diagram>
</mxfile>
